<svg width="300" height="300" xmlns="http://www.w3.org/2000/svg">
  <!-- QR Code Pattern -->
  <rect width="300" height="300" fill="white"/>
  
  <!-- Corner squares -->
  <rect x="10" y="10" width="70" height="70" fill="black"/>
  <rect x="20" y="20" width="50" height="50" fill="white"/>
  <rect x="30" y="30" width="30" height="30" fill="black"/>
  
  <rect x="220" y="10" width="70" height="70" fill="black"/>
  <rect x="230" y="20" width="50" height="50" fill="white"/>
  <rect x="240" y="30" width="30" height="30" fill="black"/>
  
  <rect x="10" y="220" width="70" height="70" fill="black"/>
  <rect x="20" y="230" width="50" height="50" fill="white"/>
  <rect x="30" y="240" width="30" height="30" fill="black"/>
  
  <!-- Data patterns -->
  <rect x="90" y="10" width="10" height="10" fill="black"/>
  <rect x="110" y="10" width="10" height="10" fill="black"/>
  <rect x="130" y="10" width="10" height="10" fill="black"/>
  <rect x="150" y="10" width="10" height="10" fill="black"/>
  <rect x="170" y="10" width="10" height="10" fill="black"/>
  <rect x="190" y="10" width="10" height="10" fill="black"/>
  
  <rect x="10" y="90" width="10" height="10" fill="black"/>
  <rect x="10" y="110" width="10" height="10" fill="black"/>
  <rect x="10" y="130" width="10" height="10" fill="black"/>
  <rect x="10" y="150" width="10" height="10" fill="black"/>
  <rect x="10" y="170" width="10" height="10" fill="black"/>
  <rect x="10" y="190" width="10" height="10" fill="black"/>
  
  <!-- More QR patterns -->
  <rect x="90" y="90" width="10" height="10" fill="black"/>
  <rect x="110" y="90" width="10" height="10" fill="black"/>
  <rect x="130" y="90" width="10" height="10" fill="black"/>
  <rect x="150" y="90" width="10" height="10" fill="black"/>
  <rect x="170" y="90" width="10" height="10" fill="black"/>
  <rect x="190" y="90" width="10" height="10" fill="black"/>
  
  <rect x="90" y="110" width="10" height="10" fill="black"/>
  <rect x="110" y="110" width="10" height="10" fill="black"/>
  <rect x="130" y="110" width="10" height="10" fill="black"/>
  <rect x="150" y="110" width="10" height="10" fill="black"/>
  <rect x="170" y="110" width="10" height="10" fill="black"/>
  <rect x="190" y="110" width="10" height="10" fill="black"/>
  
  <!-- Additional data patterns -->
  <rect x="90" y="130" width="10" height="10" fill="black"/>
  <rect x="110" y="130" width="10" height="10" fill="black"/>
  <rect x="130" y="130" width="10" height="10" fill="black"/>
  <rect x="150" y="130" width="10" height="10" fill="black"/>
  <rect x="170" y="130" width="10" height="10" fill="black"/>
  <rect x="190" y="130" width="10" height="10" fill="black"/>
  
  <rect x="90" y="150" width="10" height="10" fill="black"/>
  <rect x="110" y="150" width="10" height="10" fill="black"/>
  <rect x="130" y="150" width="10" height="10" fill="black"/>
  <rect x="150" y="150" width="10" height="10" fill="black"/>
  <rect x="170" y="150" width="10" height="10" fill="black"/>
  <rect x="190" y="150" width="10" height="10" fill="black"/>
  
  <rect x="90" y="170" width="10" height="10" fill="black"/>
  <rect x="110" y="170" width="10" height="10" fill="black"/>
  <rect x="130" y="170" width="10" height="10" fill="black"/>
  <rect x="150" y="170" width="10" height="10" fill="black"/>
  <rect x="170" y="170" width="10" height="10" fill="black"/>
  <rect x="190" y="170" width="10" height="10" fill="black"/>
  
  <rect x="90" y="190" width="10" height="10" fill="black"/>
  <rect x="110" y="190" width="10" height="10" fill="black"/>
  <rect x="130" y="190" width="10" height="10" fill="black"/>
  <rect x="150" y="190" width="10" height="10" fill="black"/>
  <rect x="170" y="190" width="10" height="10" fill="black"/>
  <rect x="190" y="190" width="10" height="10" fill="black"/>
  
  <!-- Bottom patterns -->
  <rect x="90" y="220" width="10" height="10" fill="black"/>
  <rect x="110" y="220" width="10" height="10" fill="black"/>
  <rect x="130" y="220" width="10" height="10" fill="black"/>
  <rect x="150" y="220" width="10" height="10" fill="black"/>
  <rect x="170" y="220" width="10" height="10" fill="black"/>
  <rect x="190" y="220" width="10" height="10" fill="black"/>
  
  <rect x="90" y="240" width="10" height="10" fill="black"/>
  <rect x="110" y="240" width="10" height="10" fill="black"/>
  <rect x="130" y="240" width="10" height="10" fill="black"/>
  <rect x="150" y="240" width="10" height="10" fill="black"/>
  <rect x="170" y="240" width="10" height="10" fill="black"/>
  <rect x="190" y="240" width="10" height="10" fill="black"/>
  
  <!-- Right patterns -->
  <rect x="220" y="90" width="10" height="10" fill="black"/>
  <rect x="240" y="90" width="10" height="10" fill="black"/>
  <rect x="260" y="90" width="10" height="10" fill="black"/>
  <rect x="280" y="90" width="10" height="10" fill="black"/>
  
  <rect x="220" y="110" width="10" height="10" fill="black"/>
  <rect x="240" y="110" width="10" height="10" fill="black"/>
  <rect x="260" y="110" width="10" height="10" fill="black"/>
  <rect x="280" y="110" width="10" height="10" fill="black"/>
  
  <rect x="220" y="130" width="10" height="10" fill="black"/>
  <rect x="240" y="130" width="10" height="10" fill="black"/>
  <rect x="260" y="130" width="10" height="10" fill="black"/>
  <rect x="280" y="130" width="10" height="10" fill="black"/>
  
  <rect x="220" y="150" width="10" height="10" fill="black"/>
  <rect x="240" y="150" width="10" height="10" fill="black"/>
  <rect x="260" y="150" width="10" height="10" fill="black"/>
  <rect x="280" y="150" width="10" height="10" fill="black"/>
  
  <rect x="220" y="170" width="10" height="10" fill="black"/>
  <rect x="240" y="170" width="10" height="10" fill="black"/>
  <rect x="260" y="170" width="10" height="10" fill="black"/>
  <rect x="280" y="170" width="10" height="10" fill="black"/>
  
  <rect x="220" y="190" width="10" height="10" fill="black"/>
  <rect x="240" y="190" width="10" height="10" fill="black"/>
  <rect x="260" y="190" width="10" height="10" fill="black"/>
  <rect x="280" y="190" width="10" height="10" fill="black"/>
  
  <rect x="220" y="220" width="10" height="10" fill="black"/>
  <rect x="240" y="220" width="10" height="10" fill="black"/>
  <rect x="260" y="220" width="10" height="10" fill="black"/>
  <rect x="280" y="220" width="10" height="10" fill="black"/>
  
  <rect x="220" y="240" width="10" height="10" fill="black"/>
  <rect x="240" y="240" width="10" height="10" fill="black"/>
  <rect x="260" y="240" width="10" height="10" fill="black"/>
  <rect x="280" y="240" width="10" height="10" fill="black"/>
  
  <rect x="220" y="260" width="10" height="10" fill="black"/>
  <rect x="240" y="260" width="10" height="10" fill="black"/>
  <rect x="260" y="260" width="10" height="10" fill="black"/>
  <rect x="280" y="260" width="10" height="10" fill="black"/>
  
  <rect x="220" y="280" width="10" height="10" fill="black"/>
  <rect x="240" y="280" width="10" height="10" fill="black"/>
  <rect x="260" y="280" width="10" height="10" fill="black"/>
  <rect x="280" y="280" width="10" height="10" fill="black"/>
  
  <!-- More patterns to fill the QR code -->
  <rect x="90" y="260" width="10" height="10" fill="black"/>
  <rect x="110" y="260" width="10" height="10" fill="black"/>
  <rect x="130" y="260" width="10" height="10" fill="black"/>
  <rect x="150" y="260" width="10" height="10" fill="black"/>
  <rect x="170" y="260" width="10" height="10" fill="black"/>
  <rect x="190" y="260" width="10" height="10" fill="black"/>
  
  <rect x="90" y="280" width="10" height="10" fill="black"/>
  <rect x="110" y="280" width="10" height="10" fill="black"/>
  <rect x="130" y="280" width="10" height="10" fill="black"/>
  <rect x="150" y="280" width="10" height="10" fill="black"/>
  <rect x="170" y="280" width="10" height="10" fill="black"/>
  <rect x="190" y="280" width="10" height="10" fill="black"/>
</svg> 